<svg xmlns="http://www.w3.org/2000/svg" viewBox="0 0 1024 640" fill="none">
  <defs>
    <linearGradient id="bg" x1="0" y1="0" x2="0" y2="1">
      <stop offset="0%" stop-color="#fafbfc"/>
      <stop offset="100%" stop-color="#f0f2f5"/>
    </linearGradient>
    <linearGradient id="accent" x1="0" y1="0" x2="1" y2="1">
      <stop offset="0%" stop-color="#5544e4"/>
      <stop offset="100%" stop-color="#7c6ff7"/>
    </linearGradient>
    <linearGradient id="previewGrad" x1="0" y1="0" x2="0" y2="1">
      <stop offset="0%" stop-color="#1a1520"/>
      <stop offset="100%" stop-color="#0d0b12"/>
    </linearGradient>
    <linearGradient id="sidebar" x1="0" y1="0" x2="1" y2="0">
      <stop offset="0%" stop-color="#f8f9fb"/>
      <stop offset="100%" stop-color="#eef0f4"/>
    </linearGradient>
    <linearGradient id="cardGrad" x1="0" y1="0" x2="0" y2="1">
      <stop offset="0%" stop-color="#fff"/>
      <stop offset="100%" stop-color="#f9fafb"/>
    </linearGradient>
    <filter id="shadow" x="-4%" y="-4%" width="108%" height="112%">
      <feDropShadow dx="0" dy="2" stdDeviation="6" flood-color="#1a1520" flood-opacity="0.06"/>
    </filter>
    <filter id="cardShadow" x="-2%" y="-2%" width="104%" height="108%">
      <feDropShadow dx="0" dy="1" stdDeviation="3" flood-color="#1a1520" flood-opacity="0.05"/>
    </filter>
    <clipPath id="frameClip">
      <rect x="0" y="0" width="1024" height="640" rx="16"/>
    </clipPath>
  </defs>

  <!-- Frame -->
  <rect x="0" y="0" width="1024" height="640" rx="16" fill="url(#bg)"/>
  <rect x="0" y="0" width="1024" height="640" rx="16" stroke="#dde0e5" stroke-width="1.5"/>

  <g clip-path="url(#frameClip)">

    <!-- ===== TOP HEADER ===== -->
    <rect x="0" y="0" width="1024" height="52" fill="white" opacity="0.95"/>
    <line x1="0" y1="52" x2="1024" y2="52" stroke="#eef0f4" stroke-width="1"/>

    <!-- Logo -->
    <g transform="translate(16, 10)">
      <rect x="0" y="0" width="32" height="32" rx="8" fill="url(#accent)"/>
      <text x="16" y="22" text-anchor="middle" font-family="Arial, sans-serif" font-weight="700" font-size="16" fill="white">M</text>
    </g>
    <text x="56" y="32" font-family="Arial, sans-serif" font-weight="700" font-size="15" fill="#1a1520">
      menu<tspan fill="#5544e4">kits</tspan>
    </text>

    <!-- Header right actions -->
    <g transform="translate(830, 12)">
      <rect x="0" y="0" width="80" height="28" rx="7" fill="url(#accent)"/>
      <text x="40" y="19" text-anchor="middle" font-family="Arial, sans-serif" font-weight="600" font-size="11" fill="white">Publish</text>
    </g>
    <circle cx="940" cy="26" r="14" fill="#eef0f4"/>
    <text x="940" y="31" text-anchor="middle" font-family="Arial, sans-serif" font-weight="600" font-size="13" fill="#7b7f88">A</text>

    <!-- ===== SIDEBAR ===== -->
    <rect x="0" y="52" width="200" height="588" fill="url(#sidebar)"/>
    <line x1="200" y1="52" x2="200" y2="640" stroke="#e8eaef" stroke-width="1"/>

    <!-- Sidebar nav items -->
    <g font-family="Arial, sans-serif" font-size="12" fill="#7b7f88">
      <!-- Overview -->
      <rect x="12" y="68" width="176" height="34" rx="6" fill="#5544e4" opacity="0.1"/>
      <rect x="16" y="72" width="16" height="16" rx="4" fill="#5544e4" opacity="0.2"/>
      <text x="40" y="85" font-weight="600" fill="#5544e4">Overview</text>

      <!-- Menus -->
      <rect x="16" y="112" width="16" height="16" rx="3" stroke="#ccd0d8" stroke-width="1.5"/>
      <text x="40" y="125" font-weight="500">Menus</text>

      <!-- Categories -->
      <rect x="16" y="148" width="16" height="16" rx="3" stroke="#ccd0d8" stroke-width="1.5"/>
      <text x="40" y="161" font-weight="500">Categories</text>

      <!-- Dishes -->
      <rect x="16" y="184" width="16" height="16" rx="3" stroke="#ccd0d8" stroke-width="1.5"/>
      <text x="40" y="197" font-weight="500">Dishes</text>

      <!-- Modifiers (active) -->
      <rect x="12" y="216" width="176" height="34" rx="6" fill="#5544e4" opacity="0.1"/>
      <rect x="16" y="224" width="16" height="16" rx="4" fill="#5544e4" opacity="0.5"/>
      <text x="40" y="237" font-weight="600" fill="#1a1520">Modifiers</text>

      <!-- Section divider -->
      <line x1="20" y1="264" x2="180" y2="264" stroke="#e8eaef" stroke-width="1"/>

      <!-- Design - active -->
      <rect x="12" y="276" width="176" height="34" rx="6" fill="#5544e4" opacity="0.1"/>
      <rect x="16" y="280" width="16" height="16" rx="4" fill="#5544e4" opacity="0.5"/>
      <text x="40" y="294" font-weight="600" fill="#1a1520">Design</text>

      <!-- Settings -->
      <rect x="16" y="316" width="16" height="16" rx="3" stroke="#ccd0d8" stroke-width="1.5"/>
      <text x="40" y="329" font-weight="500">Settings</text>

      <!-- Analytics -->
      <rect x="16" y="352" width="16" height="16" rx="3" stroke="#ccd0d8" stroke-width="1.5"/>
      <text x="40" y="365" font-weight="500">Analytics</text>

      <!-- Orders -->
      <rect x="16" y="388" width="16" height="16" rx="3" stroke="#ccd0d8" stroke-width="1.5"/>
      <text x="40" y="401" font-weight="500">Orders</text>

      <!-- QR Codes -->
      <rect x="16" y="424" width="16" height="16" rx="3" stroke="#ccd0d8" stroke-width="1.5"/>
      <text x="40" y="437" font-weight="500">QR Codes</text>
    </g>

    <!-- ===== MAIN CONTENT AREA ===== -->

    <!-- Breadcrumb -->
    <text x="220" y="72" font-family="Arial, sans-serif" font-weight="500" font-size="11" fill="#9da3ad">Menus</text>
    <text x="262" y="72" font-family="Arial, sans-serif" font-weight="500" font-size="11" fill="#9da3ad">/</text>
    <text x="270" y="72" font-family="Arial, sans-serif" font-weight="600" font-size="11" fill="#5544e4">Dinner Menu</text>

    <!-- Title row -->
    <text x="220" y="94" font-family="Arial, sans-serif" font-weight="700" font-size="18" fill="#1a1520">Dinner Menu</text>
    <rect x="380" y="80" width="48" height="20" rx="10" fill="#5544e4" opacity="0.1"/>
    <text x="392" y="94" font-family="Arial, sans-serif" font-weight="600" font-size="10" fill="#5544e4">Active</text>

    <!-- Tabs -->
    <g transform="translate(220, 108)">
      <rect x="0" y="0" width="80" height="30" rx="6" fill="white"/>
      <text x="40" y="20" font-family="Arial, sans-serif" font-weight="600" font-size="12" fill="#1a1520">List View</text>
      <rect x="88" y="0" width="80" height="30" rx="6" fill="#5544e4" opacity="0.08"/>
      <text x="128" y="20" font-family="Arial, sans-serif" font-weight="600" font-size="12" fill="#5544e4">Editor</text>
    </g>

    <!-- ===== THREE COLUMN LAYOUT ===== -->

    <!-- Column 1: Categories list -->
    <g transform="translate(220, 156)">
      <rect x="0" y="0" width="160" height="432" rx="10" fill="white" filter="url(#cardShadow)" stroke="#f0f1f4" stroke-width="1"/>

      <text x="12" y="22" font-family="Arial, sans-serif" font-weight="600" font-size="12" fill="#7b7f88">CATEGORIES</text>

      <!-- Category items -->
      <g transform="translate(0, 36)">
        <!-- Starters - active -->
        <rect x="4" y="0" width="152" height="40" rx="8" fill="#5544e4" opacity="0.07"/>
        <text x="12" y="16" font-family="Arial, sans-serif" font-weight="600" font-size="12" fill="#5544e4">Starters</text>
        <text x="12" y="32" font-family="Arial, sans-serif" font-weight="500" font-size="10" fill="#9da3ad">5 items</text>

        <rect x="4" y="48" width="152" height="40" rx="6" fill="white"/>
        <text x="12" y="64" font-family="Arial, sans-serif" font-weight="600" font-size="12" fill="#3a3c44">Salads</text>
        <text x="12" y="80" font-family="Arial, sans-serif" font-weight="500" font-size="10" fill="#9da3ad">6 items</text>

        <rect x="4" y="96" width="152" height="40" rx="6" fill="white"/>
        <text x="12" y="112" font-family="Arial, sans-serif" font-weight="600" font-size="12" fill="#3a3c44">Main Courses</text>
        <text x="12" y="128" font-family="Arial, sans-serif" font-weight="500" font-size="10" fill="#9da3ad">12 items</text>

        <rect x="4" y="144" width="152" height="40" rx="6" fill="white"/>
        <text x="12" y="160" font-family="Arial, sans-serif" font-weight="600" font-size="12" fill="#3a3c44">Pasta</text>
        <text x="12" y="176" font-family="Arial, sans-serif" font-weight="500" font-size="10" fill="#9da3ad">8 items</text>

        <rect x="4" y="192" width="152" height="40" rx="6" fill="white"/>
        <text x="12" y="208" font-family="Arial, sans-serif" font-weight="600" font-size="12" fill="#3a3c44">Burgers</text>
        <text x="12" y="224" font-family="Arial, sans-serif" font-weight="500" font-size="10" fill="#9da3ad">7 items</text>

        <rect x="4" y="240" width="152" height="40" rx="6" fill="white"/>
        <text x="12" y="256" font-family="Arial, sans-serif" font-weight="600" font-size="12" fill="#3a3c44">Sides</text>
        <text x="12" y="272" font-family="Arial, sans-serif" font-weight="500" font-size="10" fill="#9da3ad">5 items</text>
      </g>
    </g>

    <!-- Column 2: Dishes table -->
    <g transform="translate(392, 156)">
      <rect x="0" y="0" width="200" height="432" rx="10" fill="white" filter="url(#cardShadow)" stroke="#f0f1f4" stroke-width="1"/>

      <text x="12" y="22" font-family="Arial, sans-serif" font-weight="600" font-size="12" fill="#7b7f88">STARTERS</text>

      <!-- Dish cards -->
      <g transform="translate(0, 36)">
        <!-- Dish 1 -->
        <rect x="4" y="0" width="192" height="60" rx="8" fill="#fafbfc"/>
        <rect x="10" y="8" width="44" height="44" rx="6" fill="#e8d5b7"/>
        <rect x="12" y="12" width="40" height="36" rx="5" fill="#d4a574" opacity="0.6"/>
        <text x="62" y="26" font-family="Arial, sans-serif" font-weight="600" font-size="12" fill="#1a1520">Burrata Bruschetta</text>
        <text x="62" y="42" font-family="Arial, sans-serif" font-weight="500" font-size="11" fill="#7b7f88">Tomato, basil, olive oil</text>
        <text x="155" y="26" font-family="Arial, sans-serif" font-weight="700" font-size="12" fill="#1a1520">€8.90</text>

        <!-- Dish 2 -->
        <rect x="4" y="70" width="192" height="60" rx="8" fill="white"/>
        <rect x="10" y="78" width="44" height="44" rx="6" fill="#f0e6d3"/>
        <rect x="12" y="82" width="40" height="36" rx="5" fill="#c9a87c" opacity="0.6"/>
        <text x="62" y="96" font-family="Arial, sans-serif" font-weight="600" font-size="12" fill="#1a1520">Truffle Arancini</text>
        <text x="62" y="112" font-family="Arial, sans-serif" font-weight="500" font-size="11" fill="#7b7f88">Mushroom, parmesan</text>
        <text x="155" y="96" font-family="Arial, sans-serif" font-weight="700" font-size="12" fill="#1a1520">€9.50</text>

        <!-- Dish 3 -->
        <rect x="4" y="140" width="192" height="60" rx="8" fill="white"/>
        <rect x="10" y="148" width="44" height="44" rx="6" fill="#d4c4b0"/>
        <rect x="12" y="152" width="40" height="36" rx="5" fill="#b8956e" opacity="0.6"/>
        <text x="62" y="166" font-family="Arial, sans-serif" font-weight="600" font-size="12" fill="#1a1520">Beef Carpaccio</text>
        <text x="62" y="182" font-family="Arial, sans-serif" font-weight="500" font-size="11" fill="#7b7f88">Arugula, parmesan, lemon</text>
        <text x="155" y="166" font-family="Arial, sans-serif" font-weight="700" font-size="12" fill="#5544e4">€10.50</text>

        <!-- Dish 4 -->
        <rect x="4" y="210" width="192" height="60" rx="8" fill="white"/>
        <rect x="10" y="218" width="44" height="44" rx="6" fill="#e8dcc8"/>
        <rect x="12" y="222" width="40" height="36" rx="5" fill="#d4b896" opacity="0.6"/>
        <text x="62" y="236" font-family="Arial, sans-serif" font-weight="600" font-size="12" fill="#1a1520">Bruschetta al Pomodoro</text>
        <text x="62" y="252" font-family="Arial, sans-serif" font-weight="500" font-size="11" fill="#7b7f88">Fresh tomatoes, garlic</text>
        <text x="155" y="236" font-family="Arial, sans-serif" font-weight="700" font-size="12" fill="#1a1520">€7.50</text>

        <!-- Dish 5 -->
        <rect x="4" y="280" width="192" height="60" rx="8" fill="white"/>
        <rect x="10" y="288" width="44" height="44" rx="6" fill="#f5e8d0"/>
        <rect x="12" y="292" width="40" height="36" rx="5" fill="#e8c89e" opacity="0.6"/>
        <text x="62" y="306" font-family="Arial, sans-serif" font-weight="600" font-size="12" fill="#1a1520">Caprese Salad</text>
        <text x="62" y="322" font-family="Arial, sans-serif" font-weight="500" font-size="11" fill="#7b7f88">Mozzarella, tomato, pesto</text>
        <text x="155" y="306" font-family="Arial, sans-serif" font-weight="700" font-size="12" fill="#1a1520">€8.20</text>
      </g>
    </g>

    <!-- Column 3: Preview panel -->
    <g transform="translate(604, 156)">
      <rect x="0" y="0" width="200" height="432" rx="10" fill="url(#previewGrad)" filter="url(#cardShadow)"/>

      <!-- Phone mockup area -->
      <text x="100" y="20" text-anchor="middle" font-family="Arial, sans-serif" font-weight="500" font-size="9" fill="#666" opacity="0.5">PREVIEW</text>

      <!-- Phone frame -->
      <rect x="28" y="30" width="144" height="280" rx="14" fill="#111" stroke="#333" stroke-width="1.5"/>

      <!-- Phone notch -->
      <rect x="72" y="33" width="56" height="5" rx="2.5" fill="#222"/>

      <!-- Menu content in phone -->
      <rect x="30" y="40" width="140" height="268" rx="12" fill="white"/>

      <!-- Hero image placeholder -->
      <rect x="30" y="40" width="140" height="80" rx="0" fill="#1a1520"/>
      <text x="100" y="75" text-anchor="middle" font-family="Arial, sans-serif" font-weight="700" font-size="28" fill="#5544e4">&#9830;</text>

      <!-- Content -->
      <text x="42" y="132" font-family="Arial, sans-serif" font-weight="700" font-size="10" fill="#1a1520">DINNER MENU</text>

      <!-- Star rating -->
      <circle cx="46" cy="146" r="0.8" fill="#f59e0b"/>
      <circle cx="50" cy="146" r="0.8" fill="#f59e0b"/>
      <circle cx="54" cy="146" r="0.8" fill="#f59e0b"/>
      <circle cx="58" cy="146" r="0.8" fill="#f59e0b"/>
      <circle cx="62" cy="146" r="0.8" fill="#dde0e5"/>

      <text x="42" y="162" font-family="Arial, sans-serif" font-weight="600" font-size="8" fill="#7b7f88">STARTE</text>

      <!-- Mini dish items -->
      <g transform="translate(42, 170)">
        <rect x="0" y="0" width="116" height="24" rx="4" fill="#f8f9fb"/>
        <text x="6" y="9" font-family="Arial, sans-serif" font-weight="600" font-size="6" fill="#1a1520">Burrata Bruschetta</text>
        <text x="6" y="18" font-family="Arial, sans-serif" font-weight="500" font-size="5" fill="#9da3ad">Tomato, basil, olive o...</text>
        <text x="82" y="9" font-family="Arial, sans-serif" font-weight="700" font-size="6" fill="#1a1520">€8.90</text>
      </g>

      <g transform="translate(42, 198)">
        <rect x="0" y="0" width="116" height="24" rx="4" fill="white"/>
        <text x="6" y="9" font-family="Arial, sans-serif" font-weight="600" font-size="6" fill="#1a1520">Truffle Arancini</text>
        <text x="6" y="18" font-family="Arial, sans-serif" font-weight="500" font-size="5" fill="#9da3ad">Mushroom, parmesan, ...</text>
        <text x="82" y="9" font-family="Arial, sans-serif" font-weight="700" font-size="6" fill="#1a1520">€9.50</text>
      </g>

      <g transform="translate(42, 226)">
        <rect x="0" y="0" width="116" height="24" rx="4" fill="#f8f9fb"/>
        <text x="6" y="9" font-family="Arial, sans-serif" font-weight="600" font-size="6" fill="#1a1520">Beef Carpaccio</text>
        <text x="6" y="18" font-family="Arial, sans-serif" font-weight="500" font-size="5" fill="#9da3ad">Arugula, parmesan, le...</text>
        <text x="82" y="9" font-family="Arial, sans-serif" font-weight="700" font-size="6" fill="#5544e4">€10.50</text>
      </g>

      <text x="42" y="268" font-family="Arial, sans-serif" font-weight="600" font-size="8" fill="#7b7f88">SALADS</text>

      <!-- View full menu button in phone -->
      <rect x="44" y="278" width="112" height="18" rx="5" fill="url(#accent)"/>
      <text x="100" y="291" text-anchor="middle" font-family="Arial, sans-serif" font-weight="600" font-size="7" fill="white">View Full Menu</text>

      <!-- Bottom phone home bar -->
      <rect x="72" y="310" width="56" height="3" rx="1.5" fill="#dde0e5"/>

      <!-- Responsive indicator -->
      <text x="100" y="338" text-anchor="middle" font-family="Arial, sans-serif" font-weight="500" font-size="9" fill="#7b7f88">Desktop</text>
      <rect x="70" y="344" width="60" height="6" rx="3" fill="#eef0f4"/>
      <rect x="70" y="344" width="40" height="6" rx="3" fill="url(#accent)"/>

      <!-- Allergen badge -->
      <rect x="18" y="360" width="164" height="22" rx="6" fill="#fef3c7" opacity="0.9"/>
      <text x="100" y="375" text-anchor="middle" font-family="Arial, sans-serif" font-weight="500" font-size="8" fill="#d97706">GF · Vegetarian · Vegan</text>

      <!-- QR Code mock -->
      <rect x="68" y="390" width="64" height="28" rx="6" fill="#f8f9fb" stroke="#eef0f4" stroke-width="1"/>
      <g transform="translate(76, 396)">
        <rect x="0" y="0" width="4" height="4" rx="0.5" fill="#1a1520"/>
        <rect x="6" y="0" width="4" height="4" rx="0.5" fill="#1a1520"/>
        <rect x="12" y="0" width="4" height="4" rx="0.5" fill="#1a1520"/>
        <rect x="0" y="6" width="4" height="4" rx="0.5" fill="#1a1520"/>
        <rect x="12" y="6" width="4" height="4" rx="0.5" fill="#1a1520"/>
        <rect x="0" y="12" width="4" height="4" rx="0.5" fill="#1a1520"/>
        <rect x="6" y="12" width="4" height="4" rx="0.5" fill="#1a1520"/>
        <rect x="12" y="12" width="4" height="4" rx="0.5" fill="#1a1520"/>
      </g>
      <text x="100" y="414" text-anchor="middle" font-family="Arial, sans-serif" font-weight="500" font-size="7" fill="#9da3ad">Scan QR · menukits.eu/m/nord</text>
    </g>

    <!-- ===== BOTTOM STATS BAR ===== -->
    <g transform="translate(220, 600)">
      <rect x="0" y="0" width="160" height="28" rx="6" fill="white" filter="url(#cardShadow)"/>
      <text x="12" y="12" font-family="Arial, sans-serif" font-weight="500" font-size="10" fill="#7b7f88">Views</text>
      <text x="12" y="23" font-family="Arial, sans-serif" font-weight="700" font-size="12" fill="#1a1520">2,847</text>

      <rect x="170" y="0" width="160" height="28" rx="6" fill="white" filter="url(#cardShadow)"/>
      <text x="182" y="12" font-family="Arial, sans-serif" font-weight="500" font-size="10" fill="#7b7f88">Orders</text>
      <text x="182" y="23" font-family="Arial, sans-serif" font-weight="700" font-size="12" fill="#1a1520">342</text>

      <rect x="340" y="0" width="160" height="28" rx="6" fill="white" filter="url(#cardShadow)"/>
      <text x="352" y="12" font-family="Arial, sans-serif" font-weight="500" font-size="10" fill="#7b7f88">Revenue</text>
      <text x="352" y="23" font-family="Arial, sans-serif" font-weight="700" font-size="12" fill="#5544e4">€4,280</text>
    </g>

  </g>
</svg>